<mxfile host="app.diagrams.net" agent="Mozilla/5.0 (Windows NT 10.0; Win64; x64) AppleWebKit/537.36 (KHTML, like Gecko) Chrome/136.0.0.0 Safari/537.36" version="27.0.8">
  <diagram name="Página-1" id="c1VQv5RdatIqNGVh8r7D">
    <mxGraphModel dx="872" dy="465" grid="1" gridSize="10" guides="1" tooltips="1" connect="1" arrows="1" fold="1" page="1" pageScale="1" pageWidth="827" pageHeight="1169" math="0" shadow="0">
      <root>
        <mxCell id="0" />
        <mxCell id="1" parent="0" />
        <mxCell id="oFndtIzryKz3qIAFKL_W-1" value="Página inicial" style="swimlane;whiteSpace=wrap;html=1;" vertex="1" parent="1">
          <mxGeometry x="110" y="140" width="200" height="200" as="geometry" />
        </mxCell>
        <mxCell id="oFndtIzryKz3qIAFKL_W-2" value="Diga se você é:&lt;div&gt;&lt;br&gt;&lt;/div&gt;" style="rounded=0;whiteSpace=wrap;html=1;" vertex="1" parent="oFndtIzryKz3qIAFKL_W-1">
          <mxGeometry x="40" y="50" width="120" height="60" as="geometry" />
        </mxCell>
        <mxCell id="oFndtIzryKz3qIAFKL_W-3" value="Paciente | Acompanhante" style="rounded=1;whiteSpace=wrap;html=1;" vertex="1" parent="oFndtIzryKz3qIAFKL_W-1">
          <mxGeometry x="15" y="120" width="170" height="20" as="geometry" />
        </mxCell>
        <mxCell id="oFndtIzryKz3qIAFKL_W-4" value="Profissional de Saúde" style="rounded=1;whiteSpace=wrap;html=1;" vertex="1" parent="oFndtIzryKz3qIAFKL_W-1">
          <mxGeometry x="35" y="150" width="130" height="20" as="geometry" />
        </mxCell>
      </root>
    </mxGraphModel>
  </diagram>
</mxfile>
